<svg xmlns="http://www.w3.org/2000/svg" xmlns:xlink="http://www.w3.org/1999/xlink" width="320" zoomAndPan="magnify" viewBox="0 0 240 239.999995" height="320" preserveAspectRatio="xMidYMid meet" version="1.0"><defs><clipPath id="de06dc3afb"><path d="M 90 46.125 L 150 46.125 L 150 119 L 90 119 Z M 90 46.125 " clip-rule="nonzero"/></clipPath><clipPath id="328d51f5f0"><path d="M 63.855469 172 L 64 172 L 64 174 L 63.855469 174 Z M 63.855469 172 " clip-rule="nonzero"/></clipPath><clipPath id="de6eeb53c0"><path d="M 176 173 L 176.355469 173 L 176.355469 175 L 176 175 Z M 176 173 " clip-rule="nonzero"/></clipPath><clipPath id="02382ec5a7"><path d="M 63.855469 121 L 176.355469 121 L 176.355469 193.875 L 63.855469 193.875 Z M 63.855469 121 " clip-rule="nonzero"/></clipPath></defs><rect x="-24" width="288" fill="#ffffff" y="-23.999999" height="287.999994" fill-opacity="1"/><rect x="-24" width="288" fill="#121212" y="-23.999999" height="287.999994" fill-opacity="1"/><g clip-path="url(#de06dc3afb)"><path fill="#71767b" d="M 120 118.382812 C 136.414062 118.382812 149.722656 102.21875 149.722656 82.28125 C 149.722656 62.339844 145.351562 46.179688 120 46.179688 C 94.644531 46.179688 90.273438 62.339844 90.273438 82.28125 C 90.273438 102.21875 103.582031 118.382812 120 118.382812 Z M 120 118.382812 " fill-opacity="1" fill-rule="nonzero"/></g><g clip-path="url(#328d51f5f0)"><path fill="#71767b" d="M 63.859375 173.507812 C 63.851562 172.289062 63.847656 173.164062 63.859375 173.507812 Z M 63.859375 173.507812 " fill-opacity="1" fill-rule="nonzero"/></g><g clip-path="url(#de6eeb53c0)"><path fill="#71767b" d="M 176.132812 174.457031 C 176.152344 174.121094 176.140625 172.148438 176.132812 174.457031 Z M 176.132812 174.457031 " fill-opacity="1" fill-rule="nonzero"/></g><g clip-path="url(#02382ec5a7)"><path fill="#71767b" d="M 176.074219 172.050781 C 175.523438 137.316406 170.988281 127.421875 136.277344 121.152344 C 136.277344 121.152344 131.390625 127.378906 120 127.378906 C 108.609375 127.378906 103.722656 121.152344 103.722656 121.152344 C 69.390625 127.351562 64.578125 137.101562 63.945312 170.921875 C 63.894531 173.683594 63.867188 173.828125 63.859375 173.507812 C 63.863281 174.109375 63.863281 175.21875 63.863281 177.15625 C 63.863281 177.15625 72.128906 193.816406 120 193.816406 C 167.871094 193.816406 176.136719 177.15625 176.136719 177.15625 C 176.136719 175.910156 176.136719 175.046875 176.136719 174.457031 C 176.128906 174.65625 176.109375 174.269531 176.074219 172.050781 Z M 176.074219 172.050781 " fill-opacity="1" fill-rule="nonzero"/></g></svg>